<svg width="608" height="174" viewBox="0 0 608 174" fill="none" xmlns="http://www.w3.org/2000/svg">
<path d="M73.2553 45.0316C73.6698 45.0281 74.0909 45.0339 74.506 45.0357C75.0456 49.1614 76.1115 53.58 77.2392 57.5838C79.8714 67.0252 83.5131 76.1554 88.1015 84.8164C89.5522 87.572 91.1114 89.9479 92.5977 92.5884C91.8742 92.6688 90.8158 92.6443 90.0658 92.645L85.9791 92.6455L83.8178 92.6616C82.2764 89.9049 80.855 87.401 79.4541 84.5533C73.3133 72.083 69.0625 58.7685 66.8408 45.0469C68.6336 44.9497 71.3877 45.0341 73.2553 45.0316Z" fill="#9740EC"/>
<path d="M4.77881 94.5177C5.84748 94.4666 7.07516 94.4984 8.15416 94.4999L13.6261 94.495C14.8893 96.5244 16.2722 99.0801 17.3679 101.195C20.9688 108.181 23.9756 115.456 26.3563 122.946C27.1685 125.609 27.9014 128.296 28.5539 131.002C29.3515 134.18 30.306 138.524 30.6241 141.717C29.7135 141.776 28.5292 141.75 27.5973 141.752C26.0313 141.759 24.465 141.756 22.899 141.741C21.167 129.072 16.3415 115.915 10.5849 104.527C9.368 102.158 8.06633 99.8334 6.68217 97.558C6.21957 96.7897 5.0129 95.1905 4.77881 94.5177Z" fill="#9740EC"/>
<path d="M47.9775 53.0596L48.1098 53.1483C48.1845 53.502 48.1472 55.145 48.1466 55.6389L48.1442 61.3083C47.8337 61.4982 47.5147 61.6585 47.1864 61.8154C44.6865 63.0107 42.1804 64.1283 39.5963 65.1297C27.0178 70.1094 13.7157 73.0191 0.20694 73.7457L0.115586 73.7393C0.0901966 73.7075 0.0648071 73.6755 0.0395391 73.6437C0.0258117 71.5903 0.0175506 68.243 0.0419683 66.3191C1.31788 66.3113 2.59295 66.1538 3.86194 66.0376C19.0727 64.6455 34.5384 60.4174 47.9775 53.0596Z" fill="#9740EC"/>
<path d="M96.5927 113.808C96.9677 113.768 97.5746 113.769 97.968 113.758C98.0199 116.18 97.9929 118.674 97.9948 121.101C81.5003 122.205 65.3965 126.617 50.6426 134.074L49.6633 134.571C49.647 131.813 49.6517 129.054 49.6775 126.296C50.2232 125.99 51.4115 125.505 52.015 125.242C53.5397 124.563 55.0761 123.911 56.6233 123.285C68.6538 118.448 83.5662 114.584 96.5927 113.808Z" fill="#9740EC"/>
<path d="M38.1711 45.1374C38.7256 45.103 39.3169 45.1461 39.8684 45.1227C43.3578 44.9746 45.8603 45.2955 47.5246 48.7648C46.8146 49.2973 45.7267 49.837 44.9431 50.2627C43.4698 51.0629 42.0172 51.7822 40.486 52.4673C30.3277 57.052 19.5488 60.1138 8.49716 61.554C8.30169 61.6099 7.0225 61.7616 6.78889 61.7919C4.56542 62.08 2.29191 62.2281 0.052406 62.3723C0.00490698 59.9107 0.0289601 57.3073 0.0441452 54.8412C1.90305 54.8569 3.81856 54.6054 5.66252 54.3989C13.9594 53.4705 22.114 51.5448 29.9496 48.6634C31.3119 48.1534 32.6586 47.6031 33.9882 47.0132C34.8517 46.6241 37.5795 45.2409 38.1711 45.1374Z" fill="#9740EC"/>
<path d="M97.3171 124.959C97.441 124.938 97.827 124.927 97.9717 124.919C97.9878 127.37 97.9893 129.821 97.9763 132.272C97.588 132.327 97.1796 132.361 96.787 132.391C94.5874 132.563 92.4084 132.809 90.2221 133.111C84.3981 133.932 78.6457 135.199 73.0155 136.901C70.2702 137.737 67.5575 138.676 64.8836 139.718C64.0049 140.066 63.1312 140.427 62.2628 140.8C60.352 141.605 60.0807 141.642 57.9377 141.586C55.5982 141.525 54.4807 141.896 52.3813 140.572C51.4737 139.906 51.0227 139.329 50.5 138.346C51.1049 137.933 52.2401 137.414 52.9199 137.085C54.4666 136.322 56.0312 135.595 57.6125 134.906C67.5044 130.521 77.9417 127.488 88.6432 125.888C91.5244 125.49 94.4171 125.181 97.3171 124.959Z" fill="#9740EC"/>
<path d="M78.4673 45.0912C79.2257 45.0453 80.3562 45.0797 81.1403 45.0804L86.1575 45.0903C86.6801 48.8845 87.5734 52.3362 88.6423 55.9923C89.9985 60.6965 91.6478 65.3112 93.5807 69.8093C94.5029 71.8828 95.4552 73.9429 96.4371 75.9889C96.7948 76.7389 97.3678 77.5481 97.5642 78.3534C97.783 79.2498 97.7417 86.9142 97.5533 87.9313C97.429 88.6023 97.144 89.1776 96.7997 89.7603C96.5285 90.1352 96.3667 90.3388 96.0552 90.6799C93.7167 87.1439 91.3913 82.7902 89.5497 78.9722C85.3701 70.4332 82.1269 61.4668 79.8772 52.2298C79.4768 50.5883 79.0902 48.9741 78.8046 47.3091C78.6943 46.6664 78.486 45.7273 78.4673 45.0912Z" fill="#9740EC"/>
<path d="M1.55191 96.7134C1.58981 96.7283 1.67582 96.754 1.70024 96.791C2.50456 98.0104 3.37911 99.6987 4.10338 100.903C5.06222 102.496 5.87384 104.085 6.71667 105.698C10.6225 113.15 13.7729 120.973 16.121 129.053C17.3351 133.178 18.4014 137.458 19.0251 141.713C18.5375 141.754 17.9537 141.744 17.4574 141.748C15.4256 141.75 13.1985 141.797 11.1824 141.733C10.9996 140.678 10.8665 139.597 10.6578 138.55C9.20132 131.533 7.06447 124.674 4.27746 118.072C3.37923 115.89 2.42196 113.734 1.40674 111.605C1.16086 111.078 0.169093 109.285 0.124995 108.918C0.0506486 107.723 -0.0243049 106.296 0.0487051 105.106C0.209546 102.484 -0.648231 98.6218 1.55191 96.7134Z" fill="#9740EC"/>
<path d="M61.4965 94.2629L69.1305 94.252C69.4344 100.299 68.1863 109.506 66.4383 115.382C65.6188 115.707 64.1963 116.115 63.3166 116.406C61.9273 116.882 60.535 117.344 59.1642 117.871C58.6842 118.056 58.0508 118.358 57.5532 118.423C57.6866 117.534 58.1152 116.278 58.3725 115.382C58.7299 114.092 59.0651 112.795 59.3776 111.493C60.8303 105.454 61.5428 100.437 61.4965 94.2629Z" fill="#D0A1FF"/>
<path d="M48.0378 103.035L48.1089 103.063C48.2038 103.228 48.1742 109.803 48.1692 110.506C40.9852 111.871 33.643 112.202 26.3654 111.489C26.0198 110.643 25.6671 109.801 25.3072 108.962C24.6706 107.614 24.1248 106.214 23.4669 104.874C23.2605 104.454 23.0618 104.035 22.8774 103.604C23.9221 103.649 25.4593 103.888 26.5453 103.986C29.3603 104.24 31.9556 104.453 34.7891 104.4C37.9619 104.314 41.1273 104.053 44.2712 103.618C45.4984 103.457 46.8575 103.132 48.0378 103.035Z" fill="#D0A1FF"/>
<path d="M40.055 69.0527C40.2505 69.0689 40.1736 69.028 40.3127 69.1324C40.3726 69.5272 39.7607 71.2365 39.613 71.7497C39.154 73.3737 38.7332 75.0081 38.3511 76.6519C37.1123 82.009 36.4623 87.4857 36.4131 92.9841L29.0591 92.9886C28.959 92.988 28.9099 92.9753 28.8109 92.9595C28.6729 92.717 28.7845 89.3746 28.8193 88.82C29.0772 84.7029 29.6612 80.5895 30.5088 76.553C30.8231 75.0562 31.1844 73.5729 31.4916 72.0743C32.0342 71.8338 33.4957 71.4547 34.1637 71.2294C36.1542 70.5779 38.1192 69.8518 40.055 69.0527Z" fill="#D0A1FF"/>
<path d="M49.857 76.5823C50.1801 76.4804 51.739 76.2855 52.1518 76.2263C57.1749 75.5163 62.2519 75.2609 67.3209 75.463C68.4059 75.5065 70.2125 75.5788 71.2568 75.7639C72.3314 78.4396 73.3565 80.8992 74.6092 83.4884L74.5217 83.4879C73.0678 83.4727 71.2576 83.1306 69.7205 83.0342C63.4164 82.6386 57.0674 82.828 50.822 83.8087C50.4843 83.861 50.1137 83.9067 49.7842 83.9814C49.7272 83.9402 49.717 83.9085 49.6737 83.8457C49.6091 83.1125 49.5462 77.1328 49.6701 76.6298L49.857 76.5823Z" fill="#D0A1FF"/>
<path d="M49.7842 83.9811C49.7272 83.9399 49.717 83.9082 49.6737 83.8454C49.6091 83.1122 49.5462 77.1325 49.6701 76.6295L49.857 76.582C49.9927 76.9419 49.9246 83.7871 49.7842 83.9811Z" fill="#2D2C2E"/>
<path d="M49.914 98.8116C51.1025 95.1182 54.0271 94.2002 57.5795 94.2773C57.8874 101.304 56.0235 109.987 53.9544 116.676C53.7295 117.403 53.0503 119.707 52.771 120.332C52.1934 120.679 51.0194 121.121 50.3454 121.395C50.1024 121.517 49.996 121.588 49.7625 121.532C49.4375 121.125 49.7724 102.533 49.6703 100.371C49.654 100.026 49.7983 99.1859 49.914 98.8116Z" fill="#D0A1FF"/>
<path d="M47.9574 65.709L48.0157 65.7267C48.1301 65.8653 48.1334 65.9136 48.1334 66.1333C48.1334 68.3338 48.1225 70.5512 48.1276 72.7505L48.1526 86.1438C48.1447 88.1584 47.7792 89.7236 46.2869 91.1696C44.4738 92.9264 42.7604 93.0008 40.4192 92.9863C40.2856 92.9603 40.3455 92.9897 40.2523 92.8682C40.2369 91.1829 40.4295 89.1727 40.599 87.4889C41.1643 81.6308 42.3333 75.8466 44.0874 70.2287C44.3624 69.3425 44.789 67.8183 45.1356 66.9985C45.6902 66.6704 47.3443 65.9264 47.9574 65.709Z" fill="#D0A1FF"/>
<path d="M36.5729 94.4735L40.2109 94.4531C41.2055 94.448 42.3825 94.3993 43.3471 94.5894C44.052 94.7225 44.7244 94.9911 45.327 95.3804C46.6828 96.2475 47.5297 97.4391 47.8724 99.0061C47.0787 99.1826 45.9327 99.3375 45.1073 99.4679C39.9732 100.288 34.7647 100.545 29.5748 100.232C27.7241 100.113 25.9859 99.9567 24.1463 99.7032C23.0853 99.5569 21.8176 99.4686 20.7849 99.2072C20.5407 98.8556 20.1481 98.052 19.9191 97.6426C19.3484 96.6225 18.6862 95.5568 18.1914 94.504L36.5729 94.4735Z" fill="#D0A1FF"/>
<path d="M63.157 86.8785C67.3785 86.798 72.5907 87.247 76.7246 87.8853C77.1086 88.4459 78.9496 92.0898 79.1349 92.6938C77.6545 92.7884 75.7513 92.7325 74.2288 92.7318L65.9738 92.7383L58.713 92.743C57.7093 92.7455 55.6534 92.8086 54.7644 92.6951C54.1211 92.6124 53.4988 92.4114 52.9287 92.1024C51.1963 91.1799 50.4093 89.8258 49.8481 88.0135C50.4973 87.8852 51.2099 87.8318 51.8684 87.735C55.6292 87.1817 59.3595 86.9786 63.157 86.8785Z" fill="#D0A1FF"/>
<path d="M73.1037 94.2662C75.6215 94.2398 78.1394 94.2332 80.6574 94.2463C80.7719 95.2716 80.7722 96.6674 80.773 97.6884C80.7774 102.522 80.0667 107.363 79.0857 112.089C78.5258 112.259 77.5806 112.443 76.9832 112.574L72.9192 113.588C72.4851 113.698 71.2424 114.11 70.8648 114.041C70.7434 113.81 71.4638 110.875 71.5632 110.399C72.2612 107.057 72.6926 103.696 73.0122 100.3C73.2059 98.2432 73.1347 96.3182 73.1037 94.2662Z" fill="#D0A1FF"/>
<path d="M26.9337 73.3776C27.0819 73.3631 27.0305 73.3638 27.1794 73.3978C27.2366 73.5359 27.2369 73.6734 27.2022 73.8192C26.6524 76.1237 26.1086 78.4898 25.733 80.8282C25.1041 84.854 24.8008 88.9241 24.8257 92.9989C22.7838 93.1207 19.6882 93.0135 17.5791 93.0015C17.1654 92.9862 17.2455 92.7922 17.233 92.4279C17.123 89.2308 17.3044 86.013 17.6789 82.8395C17.9738 80.342 18.3154 77.7568 18.9337 75.3201C19.7131 75.1086 20.8805 74.8916 21.7133 74.6963C23.4619 74.2911 25.2025 73.8515 26.9337 73.3776Z" fill="#D0A1FF"/>
<path d="M47.7029 114.631C47.931 114.613 47.9597 114.573 48.1374 114.658C48.2217 115.173 48.1792 116.78 48.1749 117.361L48.1589 122.014C47.0461 122.277 45.451 122.422 44.2889 122.563C40.6759 123 36.9749 123.28 33.3347 123.176C32.4434 123.151 31.3244 123.149 30.4507 123.059C30.2712 122.583 30.0864 121.942 29.9274 121.446C29.3809 119.568 28.4241 117.404 27.9224 115.581C29.9892 115.732 32.1308 115.89 34.1998 115.87C38.758 115.828 43.2077 115.326 47.7029 114.631Z" fill="#D0A1FF"/>
<path d="M49.8496 65.0997C50.328 64.9413 52.047 64.7762 52.6064 64.7127C56.4708 64.2351 60.3606 63.9933 64.2545 63.9883C65.0468 63.9947 66.4233 63.981 67.1667 64.0766C67.6379 65.5683 68.1472 67.0626 68.6173 68.5567C68.9203 69.5196 69.4133 70.6192 69.6321 71.5901C68.4528 71.5315 67.2711 71.423 66.0972 71.3764C64.1314 71.3034 62.1633 71.3144 60.1985 71.4097C56.4848 71.5825 53.4467 72.0567 49.8373 72.4406L49.7302 72.4268L49.659 72.3095C49.6545 71.3865 49.5189 65.7523 49.7111 65.1664L49.8496 65.0997Z" fill="#D0A1FF"/>
<path d="M49.8373 72.4405L49.7302 72.4267L49.659 72.3094C49.6545 71.3864 49.5189 65.7522 49.7111 65.1663L49.8496 65.0996C49.9702 65.3529 49.8896 72.3384 49.8373 72.4405Z" fill="#2D2C2E"/>
<path d="M84.8923 94.2303C87.3149 94.2093 89.7377 94.2042 92.1604 94.215C92.6906 99.4641 92.131 104.89 91.3666 110.081C90.8258 110.166 90.2832 110.24 89.7395 110.303L83.2695 111.231C83.3676 109.981 83.7212 108.708 83.91 107.464C84.358 104.513 84.7119 101.498 84.7398 98.5124C84.7444 98.0199 84.5834 94.4361 84.6933 94.2599L84.8923 94.2303Z" fill="#D0A1FF"/>
<path d="M14.127 76.1812C14.34 76.1493 14.4458 76.1111 14.6449 76.1911C14.7285 76.5392 14.1547 79.5354 14.0741 80.112C13.8756 81.4835 13.7091 82.8595 13.5751 84.2388C13.3187 86.9885 13.1257 90.2427 13.3966 92.9957C11.2229 93.1128 8.51983 93.0444 6.30389 93.0342L5.76063 92.9941C5.48863 88.5038 5.71289 84.3359 6.24206 79.8656C6.339 79.1692 6.3927 77.9454 6.66141 77.3321C6.77147 77.081 9.34007 76.8842 9.67171 76.8428C11.16 76.6433 12.6452 76.4229 14.127 76.1812Z" fill="#D0A1FF"/>
<path d="M47.986 126.056L48.0933 126.074C48.2315 126.304 48.1593 132.67 48.1563 133.438C46.9408 133.697 44.8116 133.888 43.5582 134.031C40.2403 134.411 36.7352 134.596 33.3925 134.435L33.1051 133.131C32.7388 131.275 32.0695 128.986 31.5928 127.133C33.4369 127.123 35.03 127.199 36.9356 127.133C40.7786 127 44.206 126.515 47.986 126.056Z" fill="#D0A1FF"/>
<path d="M49.7789 53.7348C50.1167 53.5491 51.4616 53.4379 51.8971 53.388C55.9987 52.8865 60.1279 52.6466 64.26 52.6695C64.7327 55.0867 65.5331 57.685 65.9475 59.968C62.0956 59.9006 58.2432 60.0642 54.4109 60.458C52.8916 60.6073 51.3433 60.8878 49.8374 61.0202L49.7269 61.0072L49.6551 60.8902C49.5972 59.3106 49.6631 55.5748 49.6834 53.8445C49.7152 53.808 49.747 53.7714 49.7789 53.7348Z" fill="#D0A1FF"/>
<path d="M49.8374 61.0202L49.7269 61.0072L49.6551 60.8902C49.5972 59.3106 49.6631 55.5748 49.6834 53.8446C49.7152 53.808 49.747 53.7714 49.7789 53.7349C49.9437 53.8915 49.9295 53.9736 49.9226 54.2315C49.904 54.9268 49.9302 60.7923 49.8374 61.0202Z" fill="#2D2C2E"/>
<path d="M90.0859 45.073C90.4411 45.0643 90.7965 45.0587 91.1518 45.0562C96.103 45.0498 98.0167 48.5424 97.7112 52.9962C97.6473 53.927 97.7118 55.2355 97.7124 56.1991C97.7319 60.4741 97.7118 64.7493 97.652 69.0239L97.5681 69.0249C97.2339 68.6132 96.3386 66.244 96.1197 65.6756C94.0989 60.5811 92.43 55.3541 91.1246 50.0312C90.7374 48.4131 90.3451 46.7108 90.0859 45.073Z" fill="#9740EC"/>
<path d="M5.91355 45.1485C10.9176 45.0128 16.0109 45.2166 21.0251 45.1381C23.3537 45.1016 25.7718 45.0729 28.0977 45.1234C27.1798 45.6035 26.3112 45.8279 25.3365 46.1602C23.318 46.8482 21.2958 47.3832 19.2359 47.9259C13.4814 49.4112 5.94854 50.6319 0.0859854 50.8467C0.0796684 49.6459 0.699221 48.1232 1.50172 47.2443C2.80473 45.8175 4.04651 45.2783 5.91355 45.1485Z" fill="#9740EC"/>
<path d="M0.155737 118.541C0.5333 118.825 0.91803 120.023 1.11884 120.51C3.35749 126.064 5.15116 131.787 6.48283 137.626C6.65922 138.366 7.26165 141.04 7.19726 141.7C6.36269 141.727 5.5105 141.751 4.69718 141.541C3.15523 141.144 1.74933 140.195 0.935403 138.812C0.483737 138.032 0.198378 137.166 0.0971839 136.27C0.00716646 135.417 0.047619 133.991 0.0494412 133.097L0.0516285 127.882L0.0481056 122.028C0.0478627 121.285 -0.0133645 119.183 0.155737 118.541Z" fill="#9740EC"/>
<path d="M97.5073 136.38C97.6161 136.373 97.558 136.364 97.6762 136.432C97.6809 136.483 97.6857 136.534 97.6905 136.586C97.3972 138.893 95.3337 140.972 93.0797 141.435C92.0568 141.645 90.718 141.582 89.6491 141.584L85.0803 141.59L75.4034 141.588C74.2981 141.584 73.1782 141.626 72.0803 141.598C71.8723 141.578 71.9335 141.625 71.8184 141.518C72.0054 141.29 73.6294 140.842 74.0246 140.72C81.6442 138.366 89.5522 136.925 97.5073 136.38Z" fill="#9740EC"/>
<path d="M61.6343 45.0906C62.0469 45.0842 62.4703 45.0971 62.8839 45.1048C63.081 46.2826 63.2674 47.4622 63.4427 48.6434C61.0082 48.6226 58.5738 48.7043 56.1462 48.8884C54.6687 49.0086 53.2071 49.2301 51.7209 49.3488L50.0166 49.5147C50.4302 47.7732 51.3879 46.6218 52.9458 45.7824C54.5029 44.9436 56.051 45.1003 57.7536 45.0995L61.6343 45.0906Z" fill="#D0A1FF"/>
<path d="M47.0505 137.593C47.1963 137.571 47.5358 137.559 47.6975 137.549C47.0415 139.621 45.3599 141.07 43.2725 141.571C42.1821 141.833 40.5759 141.76 39.4275 141.757L34.7792 141.73L34.6191 141.678C34.5102 141.456 34.1622 138.75 34.1917 138.518C34.3595 138.353 36.0069 138.447 36.3334 138.443C39.9183 138.401 43.4927 137.997 47.0505 137.593Z" fill="#D0A1FF"/>
<path d="M1.57727 77.5921C1.91803 77.565 2.31952 77.5587 2.66501 77.5459C2.62796 78.2947 2.43869 79.4889 2.33981 80.2722C2.14665 81.6907 2.01157 83.1164 1.93515 84.5459C1.83347 86.3463 1.76046 88.1858 1.80092 89.9876C1.80687 90.2511 1.86907 90.7769 1.79108 90.9913C1.59622 90.964 1.57812 90.8986 1.39784 90.7538C0.0354348 89.2149 -0.0321086 87.4614 0.0209786 85.5194C0.0921664 82.9133 -0.0755991 80.234 0.045153 77.6358C0.556102 77.6311 1.06693 77.6165 1.57727 77.5921Z" fill="#D0A1FF"/>
<path d="M96.1729 96.3799C96.3502 96.4472 96.4659 96.5114 96.5936 96.6507C98.2445 98.4514 97.9803 101.193 97.9775 103.417L97.9758 109.498C97.7096 109.511 97.4218 109.539 97.154 109.559C96.5758 109.57 95.9611 109.614 95.373 109.632C95.4111 109.052 95.4945 108.458 95.586 107.883C96.1964 104.04 96.2992 100.255 96.1729 96.3799Z" fill="#D0A1FF"/>
<path d="M164.608 65.28C172.288 65.28 176.384 69.76 176.384 75.136C176.384 78.464 174.848 81.152 171.264 81.152C164.608 81.152 167.808 72.192 159.872 72.192C152.832 72.192 148.992 80.256 148.992 89.856V119.04C148.992 123.52 154.368 123.648 154.368 125.952V126.464C154.368 127.488 153.472 128 151.808 128H135.936C134.272 128 133.376 127.488 133.376 126.464V125.952C133.376 123.648 138.112 123.52 138.112 119.04V80.128C138.112 75.264 132.992 75.136 132.992 72.704V72.448C132.992 71.552 133.76 70.784 134.912 70.144L144.64 65.792C147.072 64.64 147.968 65.664 147.968 67.584V77.824C150.784 69.632 156.672 65.28 164.608 65.28ZM213.257 129.28C192.905 129.28 179.849 113.792 179.849 96.384C179.849 78.592 193.417 65.28 210.953 65.28C230.153 65.28 243.465 79.872 243.465 97.792C243.465 115.456 231.305 129.28 213.257 129.28ZM214.793 125.056C224.777 125.056 232.201 115.968 232.201 101.632C232.201 83.712 222.729 69.504 209.673 69.504C198.793 69.504 191.241 78.464 191.241 92.8C191.241 109.184 200.713 125.056 214.793 125.056ZM274.901 129.28C265.045 129.28 258.389 123.008 258.389 109.952V71.68H249.941C248.789 71.68 248.021 70.912 248.021 69.76V68.48C248.021 67.328 248.661 66.56 249.941 66.56H254.549C260.693 66.56 263.637 61.696 264.277 54.4C264.405 52.736 265.301 51.84 266.453 51.84H267.733C269.269 51.84 269.781 52.736 269.781 54.4L269.909 66.56H287.573C288.597 66.56 289.493 67.456 289.493 68.48V69.76C289.493 70.912 288.597 71.68 287.573 71.68H269.909V110.08C269.909 117.12 273.237 120.832 277.973 120.832C283.605 120.832 286.933 117.504 287.445 113.152C288.213 111.232 291.285 111.36 291.285 113.664C291.285 121.6 285.141 129.28 274.901 129.28ZM350.094 117.76C350.862 125.696 357.262 122.88 357.262 126.08C357.262 128 353.806 128.768 349.07 128.768C343.31 128.768 340.238 127.36 339.726 120.32C336.782 125.696 330.638 129.28 321.294 129.28C307.214 129.28 297.486 122.24 297.486 109.952C297.358 97.664 307.598 91.008 320.91 91.008C327.694 91.008 333.198 92.928 336.654 96.128L336.398 92.672C334.99 77.568 330.894 69.376 320.654 69.376C307.342 69.376 309.39 83.968 302.99 83.968C299.918 83.968 297.998 82.176 297.998 79.232C297.998 72.448 306.702 65.28 320.654 65.28C336.398 65.28 345.87 75.392 347.534 92.288L350.094 117.76ZM324.11 125.184C332.686 125.184 338.318 118.912 338.062 111.104L337.55 105.344C336.27 99.328 331.022 95.104 323.47 95.104C314.766 95.104 308.75 100.48 308.75 108.416C308.75 117.76 314.894 125.184 324.11 125.184ZM423.292 118.784C423.548 123.52 427.9 123.52 427.9 125.952V126.464C427.9 127.488 426.876 128.128 425.212 128.128H409.98C408.316 128.128 407.292 127.488 407.292 126.464V125.952C407.292 123.52 412.156 123.52 411.9 118.912L410.62 93.312C409.98 77.696 403.708 70.272 394.876 70.272C385.404 70.272 378.876 77.824 378.876 87.936V119.04C378.876 123.52 383.996 123.52 383.996 125.952V126.464C383.996 127.488 382.972 128.128 381.308 128.128H365.308C363.772 128.128 362.748 127.488 362.748 126.464V125.952C362.748 123.52 367.74 123.52 367.74 119.04V80.256C367.74 74.752 362.364 75.008 362.364 72.704V72.32C362.364 71.424 363.132 70.912 364.412 70.4L374.012 65.792C376.444 64.512 377.596 65.792 377.596 67.712V77.056C381.308 69.888 388.732 65.28 397.564 65.28C410.108 65.28 420.604 73.728 421.884 93.568L423.292 118.784ZM487.32 109.952C488.472 108.16 491.416 108.544 491.032 110.976C489.496 118.656 481.048 129.28 465.048 129.28C448.536 129.28 435.352 116.736 435.352 96.768C435.352 78.72 448.536 65.28 465.56 65.28C480.92 65.28 489.368 75.392 489.368 84.224C489.368 88.32 487.192 90.496 483.352 91.776L447.896 103.424C450.84 114.432 458.648 121.088 469.016 121.088C478.488 121.088 484.504 116.096 487.32 109.952ZM463.64 69.376C453.272 69.376 446.488 79.616 446.488 92.672C446.488 94.976 446.616 97.152 447 99.2L475.544 88.96C477.72 88.064 478.616 86.656 478.616 84.48C478.616 78.72 472.472 69.376 463.64 69.376ZM530.983 65.28C538.663 65.28 542.759 69.76 542.759 75.136C542.759 78.464 541.223 81.152 537.639 81.152C530.983 81.152 534.183 72.192 526.247 72.192C519.207 72.192 515.367 80.256 515.367 89.856V119.04C515.367 123.52 520.743 123.648 520.743 125.952V126.464C520.743 127.488 519.847 128 518.183 128H502.311C500.647 128 499.751 127.488 499.751 126.464V125.952C499.751 123.648 504.487 123.52 504.487 119.04V80.128C504.487 75.264 499.367 75.136 499.367 72.704V72.448C499.367 71.552 500.135 70.784 501.287 70.144L511.015 65.792C513.447 64.64 514.343 65.664 514.343 67.584V77.824C517.159 69.632 523.047 65.28 530.983 65.28ZM599.719 117.76C600.487 125.696 606.887 122.88 606.887 126.08C606.887 128 603.431 128.768 598.695 128.768C592.935 128.768 589.863 127.36 589.351 120.32C586.407 125.696 580.263 129.28 570.919 129.28C556.839 129.28 547.111 122.24 547.111 109.952C546.983 97.664 557.223 91.008 570.535 91.008C577.319 91.008 582.823 92.928 586.279 96.128L586.023 92.672C584.615 77.568 580.519 69.376 570.279 69.376C556.967 69.376 559.015 83.968 552.615 83.968C549.543 83.968 547.623 82.176 547.623 79.232C547.623 72.448 556.327 65.28 570.279 65.28C586.023 65.28 595.495 75.392 597.159 92.288L599.719 117.76ZM573.735 125.184C582.311 125.184 587.943 118.912 587.687 111.104L587.175 105.344C585.895 99.328 580.647 95.104 573.095 95.104C564.391 95.104 558.375 100.48 558.375 108.416C558.375 117.76 564.519 125.184 573.735 125.184Z" fill="#8F4CFF"/>
</svg>
