<svg width="807" height="797" viewBox="0 0 807 797" fill="none" xmlns="http://www.w3.org/2000/svg">
<path d="M603.018 0.260279C606.43 0.231579 609.897 0.278681 613.314 0.293581C617.756 34.2554 626.53 70.6284 635.813 103.586C657.48 181.305 687.458 256.463 725.228 327.758C737.17 350.441 750.005 369.999 762.24 391.735C756.284 392.397 747.572 392.195 741.398 392.201L707.757 392.205L689.966 392.338C677.278 369.645 665.577 349.034 654.045 325.592C603.496 222.94 568.504 113.338 550.216 0.386179C564.974 -0.413921 587.645 0.280679 603.018 0.260279Z" fill="#9740EC"/>
<path d="M39.3359 407.616C48.1329 407.195 58.2389 407.457 67.1209 407.469L112.165 407.429C122.563 424.134 133.947 445.172 142.966 462.585C172.608 520.085 197.359 579.978 216.956 641.63C223.642 663.552 229.675 685.668 235.046 707.949C241.612 734.102 249.469 769.864 252.088 796.146C244.592 796.637 234.843 796.423 227.172 796.435C214.281 796.496 201.388 796.467 188.497 796.348C174.239 692.057 134.517 583.751 87.1299 490.007C77.1129 470.506 66.3979 451.373 55.0039 432.643C51.1959 426.318 41.2629 413.154 39.3359 407.616Z" fill="#9740EC"/>
<path d="M394.94 66.3438L396.029 67.0738C396.644 69.9858 396.337 83.5108 396.332 87.5758L396.312 134.245C393.756 135.809 391.13 137.128 388.428 138.42C367.849 148.259 347.22 157.459 325.948 165.702C222.405 206.694 112.906 230.646 1.70518 236.627L0.953177 236.574C0.744177 236.312 0.535178 236.049 0.327178 235.787C0.214178 218.884 0.146174 191.33 0.347174 175.493C10.8502 175.429 21.3462 174.132 31.7922 173.176C157.003 161.716 284.313 126.912 394.94 66.3438Z" fill="#9740EC"/>
<path d="M795.125 566.409C798.212 566.077 803.208 566.092 806.446 566C806.873 585.931 806.651 606.465 806.667 626.44C670.888 635.529 538.326 671.848 416.876 733.234L408.814 737.326C408.68 714.621 408.719 691.914 408.931 669.209C413.423 666.685 423.205 662.698 428.173 660.531C440.724 654.944 453.371 649.574 466.107 644.423C565.139 604.603 687.894 572.794 795.125 566.409Z" fill="#9740EC"/>
<path d="M314.215 1.13237C318.78 0.849171 323.647 1.20397 328.187 1.01137C356.911 -0.207631 377.511 2.43387 391.211 30.9929C385.366 35.3759 376.411 39.8189 369.961 43.3229C357.833 49.9099 345.875 55.8309 333.271 61.4709C249.65 99.2109 160.921 124.415 69.9466 136.27C68.3376 136.73 57.8076 137.979 55.8846 138.228C37.5816 140.6 18.8666 141.819 0.431595 143.006C0.0405946 122.743 0.238594 101.312 0.363594 81.0119C15.6656 81.1409 31.4336 79.0709 46.6126 77.3709C114.911 69.7289 182.037 53.8769 246.538 30.1579C257.752 25.9599 268.838 21.4299 279.783 16.5739C286.891 13.3709 309.345 1.98467 314.215 1.13237Z" fill="#9740EC"/>
<path d="M801.087 658.203C802.107 658.031 805.285 657.939 806.476 657.872C806.608 678.047 806.621 698.222 806.514 718.397C803.317 718.854 799.955 719.132 796.724 719.384C778.617 720.798 760.68 722.817 742.683 725.307C694.741 732.067 647.389 742.498 601.043 756.506C578.444 763.385 556.114 771.12 534.103 779.696C526.87 782.561 519.678 785.529 512.529 788.6C496.8 795.231 494.567 795.533 476.926 795.072C457.668 794.568 448.469 797.626 431.187 786.72C423.716 781.242 420.004 776.489 415.701 768.396C420.68 764.998 430.025 760.73 435.621 758.023C448.353 751.737 461.232 745.755 474.249 740.083C555.677 703.986 641.594 679.017 729.686 665.847C753.403 662.576 777.215 660.027 801.087 658.203Z" fill="#9740EC"/>
<path d="M645.923 0.748984C652.166 0.371684 661.472 0.654883 667.927 0.660483L709.227 0.741484C713.529 31.9751 720.882 60.3881 729.681 90.4841C740.845 129.208 754.422 167.195 770.333 204.222C777.924 221.291 785.763 238.249 793.846 255.091C796.79 261.265 801.507 267.926 803.124 274.555C804.925 281.934 804.585 345.025 803.034 353.398C802.011 358.921 799.665 363.657 796.831 368.454C794.598 371.54 793.266 373.216 790.702 376.024C771.452 346.916 752.31 311.078 737.151 279.649C702.745 209.358 676.048 135.549 657.529 59.5121C654.233 46.0001 651.051 32.7121 648.7 19.0061C647.792 13.7161 646.077 5.98508 645.923 0.748984Z" fill="#9740EC"/>
<path d="M12.7747 425.69C13.0867 425.813 13.7947 426.024 13.9957 426.329C20.6167 436.367 27.8157 450.264 33.7777 460.175C41.6707 473.294 48.3517 486.375 55.2897 499.647C87.4417 560.989 113.375 625.393 132.704 691.898C142.698 725.854 151.476 761.088 156.61 796.112C152.596 796.454 147.79 796.372 143.705 796.405C126.98 796.418 108.647 796.803 92.0507 796.276C90.5457 787.596 89.4497 778.693 87.7317 770.082C75.7427 712.317 58.1527 655.858 35.2107 601.506C27.8167 583.551 19.9367 565.8 11.5797 548.272C9.55569 543.938 1.39169 529.178 1.02869 526.152C0.416688 516.315 -0.200311 504.568 0.400689 494.778C1.72469 473.194 -5.33631 441.4 12.7747 425.69Z" fill="#9740EC"/>
<path d="M506.223 405.52L569.064 405.43C571.566 455.207 561.292 530.996 546.903 579.364C540.157 582.046 528.447 585.403 521.206 587.795C509.769 591.711 498.308 595.518 487.024 599.857C483.073 601.376 477.859 603.862 473.763 604.397C474.861 597.078 478.389 586.739 480.507 579.371C483.449 568.747 486.208 558.073 488.781 547.353C500.739 497.642 506.604 456.342 506.223 405.52Z" fill="#3B3B3B"/>
<path d="M395.436 477.73L396.021 477.96C396.802 479.314 396.558 533.44 396.517 539.232C337.38 550.462 276.941 553.185 217.034 547.317C214.189 540.359 211.286 533.426 208.323 526.518C203.083 515.422 198.59 503.894 193.174 492.868C191.475 489.41 189.84 485.958 188.322 482.415C196.921 482.782 209.575 484.75 218.515 485.558C241.687 487.652 263.051 489.399 286.376 488.969C312.493 488.257 338.55 486.108 364.43 482.531C374.532 481.2 385.72 478.524 395.436 477.73Z" fill="#3B3B3B"/>
<path d="M329.721 197.995C331.33 198.128 330.697 197.791 331.842 198.651C332.335 201.901 327.298 215.971 326.082 220.196C322.304 233.564 318.84 247.018 315.695 260.549C305.497 304.648 300.147 349.73 299.742 394.992L239.205 395.029C238.381 395.024 237.977 394.919 237.162 394.789C236.026 392.793 236.945 365.279 237.231 360.714C239.354 326.823 244.162 292.963 251.139 259.735C253.726 247.414 256.7 235.204 259.229 222.868C263.696 220.888 275.726 217.767 281.225 215.913C297.61 210.55 313.786 204.573 329.721 197.995Z" fill="#3B3B3B"/>
<path d="M410.412 259.977C413.071 259.138 425.904 257.534 429.302 257.046C470.651 251.202 512.443 249.099 554.17 250.763C563.101 251.121 577.973 251.716 586.569 253.24C595.415 275.266 603.853 295.512 614.165 316.826L613.445 316.822C601.477 316.697 586.576 313.881 573.923 313.087C522.029 309.831 469.766 311.39 418.355 319.463C415.575 319.893 412.525 320.269 409.812 320.884C409.343 320.545 409.259 320.284 408.903 319.767C408.371 313.732 407.853 264.508 408.873 260.368L410.412 259.977Z" fill="#3B3B3B"/>
<path d="M409.812 320.884C409.343 320.545 409.259 320.284 408.903 319.767C408.371 313.732 407.853 264.508 408.873 260.368L410.412 259.977C411.529 262.939 410.968 319.287 409.812 320.884Z" fill="#2D2C2E"/>
<path d="M410.881 442.962C420.664 412.559 444.739 405.002 473.981 405.637C476.516 463.482 461.173 534.955 444.14 590.02C442.289 596.005 436.698 614.967 434.399 620.112C429.644 622.968 419.98 626.603 414.432 628.862C412.432 629.868 411.556 630.449 409.634 629.992C406.958 626.639 409.715 473.595 408.875 455.797C408.741 452.956 409.928 446.043 410.881 442.962Z" fill="#3B3B3B"/>
<path d="M394.774 170.472L395.254 170.618C396.196 171.759 396.223 172.156 396.223 173.965C396.223 192.079 396.133 210.332 396.175 228.436L396.381 338.686C396.316 355.27 393.307 368.154 381.023 380.057C366.098 394.519 351.994 395.131 332.722 395.012C331.622 394.798 332.115 395.04 331.348 394.04C331.221 380.167 332.806 363.619 334.202 349.759C338.855 301.536 348.478 253.922 362.917 207.677C365.181 200.382 368.693 187.835 371.546 181.087C376.111 178.386 389.727 172.262 394.774 170.472Z" fill="#3B3B3B"/>
<path d="M301.06 407.253L331.007 407.085C339.194 407.043 348.883 406.642 356.823 408.207C362.626 409.302 368.161 411.513 373.121 414.718C384.282 421.856 391.253 431.665 394.074 444.564C387.541 446.017 378.107 447.292 371.313 448.365C329.05 455.118 286.175 457.228 243.453 454.655C228.219 453.679 213.91 452.389 198.767 450.302C190.033 449.098 179.598 448.371 171.097 446.219C169.087 443.325 165.855 436.71 163.97 433.34C159.272 424.943 153.821 416.17 149.748 407.504L301.06 407.253Z" fill="#3B3B3B"/>
<path d="M519.893 344.731C554.643 344.069 597.549 347.765 631.578 353.019C634.739 357.634 649.894 387.629 651.419 392.601C639.233 393.38 623.566 392.92 611.033 392.914L543.08 392.968L483.311 393.006C475.049 393.027 458.125 393.546 450.807 392.612C445.512 391.931 440.389 390.277 435.696 387.733C421.436 380.139 414.957 368.993 410.338 354.074C415.682 353.018 421.548 352.579 426.968 351.782C457.926 347.227 488.633 345.555 519.893 344.731Z" fill="#3B3B3B"/>
<path d="M601.772 405.546C622.498 405.329 643.225 405.274 663.952 405.382C664.895 413.822 664.897 425.312 664.904 433.717C664.94 473.503 659.09 513.358 651.014 552.256C646.405 553.658 638.625 555.169 633.707 556.254L600.253 564.594C596.68 565.507 586.45 568.894 583.342 568.328C582.343 566.429 588.273 542.269 589.091 538.351C594.837 510.836 598.388 483.173 601.019 455.215C602.613 438.284 602.027 422.438 601.772 405.546Z" fill="#3B3B3B"/>
<path d="M221.71 233.597C222.93 233.478 222.507 233.483 223.732 233.763C224.203 234.9 224.206 236.032 223.92 237.232C219.394 256.202 214.918 275.679 211.826 294.928C206.649 328.068 204.152 361.572 204.357 395.114C187.549 396.117 162.067 395.235 144.705 395.136C141.3 395.01 141.959 393.413 141.856 390.414C140.951 364.096 142.444 337.608 145.527 311.485C147.954 290.926 150.766 269.645 155.856 249.587C162.272 247.846 171.881 246.06 178.737 244.452C193.131 241.117 207.459 237.498 221.71 233.597Z" fill="#3B3B3B"/>
<path d="M392.678 573.185C394.556 573.036 394.792 572.704 396.255 573.404C396.949 577.649 396.599 590.879 396.564 595.654L396.432 633.957C387.272 636.122 374.141 637.321 364.575 638.478C334.834 642.075 304.368 644.38 274.403 643.526C267.066 643.317 257.855 643.304 250.663 642.566C249.185 638.645 247.664 633.365 246.355 629.283C241.856 613.828 233.98 596.009 229.85 581.005C246.864 582.244 264.493 583.548 281.524 583.388C319.046 583.036 355.675 578.907 392.678 573.185Z" fill="#3B3B3B"/>
<path d="M410.349 165.454C414.287 164.15 428.437 162.791 433.042 162.268C464.853 158.337 496.873 156.346 528.926 156.305C535.448 156.358 546.779 156.245 552.899 157.032C556.778 169.311 560.97 181.612 564.84 193.911C567.334 201.837 571.392 210.889 573.193 218.881C563.486 218.399 553.758 217.506 544.095 217.122C527.913 216.521 511.712 216.612 495.538 217.396C464.968 218.819 439.959 222.722 410.248 225.882L409.366 225.769L408.78 224.803C408.743 217.205 407.627 170.826 409.209 166.003L410.349 165.454Z" fill="#3B3B3B"/>
<path d="M410.248 225.882L409.366 225.769L408.78 224.803C408.743 217.205 407.627 170.826 409.209 166.003L410.349 165.454C411.342 167.539 410.678 225.042 410.248 225.882Z" fill="#2D2C2E"/>
<path d="M698.811 405.25C718.753 405.077 738.697 405.035 758.64 405.124C763.005 448.333 758.398 492.994 752.106 535.725C747.654 536.426 743.188 537.038 738.712 537.56L685.453 545.198C686.26 534.905 689.171 524.43 690.725 514.187C694.413 489.895 697.326 465.079 697.556 440.499C697.594 436.445 696.268 406.944 697.173 405.494L698.811 405.25Z" fill="#3B3B3B"/>
<path d="M116.289 256.675C118.042 256.412 118.913 256.098 120.552 256.756C121.24 259.622 116.517 284.286 115.853 289.032C114.219 300.322 112.849 311.649 111.746 323.003C109.635 345.638 108.046 372.425 110.276 395.087C92.3826 396.051 70.1316 395.488 51.8906 395.404L47.4186 395.074C45.1796 358.111 47.0256 323.802 51.3816 287.004C52.1796 281.271 52.6216 271.197 54.8336 266.149C55.7396 264.082 76.8836 262.462 79.6136 262.121C91.8646 260.479 104.091 258.664 116.289 256.675Z" fill="#3B3B3B"/>
<path d="M395.008 667.229L395.891 667.379C397.029 669.275 396.434 721.678 396.41 727.998C386.404 730.133 368.877 731.704 358.559 732.884C331.247 736.007 302.394 737.53 274.878 736.204L272.512 725.469C269.497 710.194 263.987 691.35 260.062 676.1C275.243 676.018 288.357 676.641 304.044 676.099C335.678 675.006 363.892 671.011 395.008 667.229Z" fill="#3B3B3B"/>
<path d="M409.766 71.9019C412.547 70.3729 423.618 69.4579 427.203 69.0469C460.966 64.9189 494.957 62.9439 528.971 63.1319C532.862 83.0299 539.451 104.419 542.862 123.212C511.154 122.657 479.442 124.004 447.896 127.245C435.389 128.474 422.644 130.783 410.248 131.873L409.338 131.766L408.747 130.803C408.271 117.8 408.813 87.0479 408.98 72.8049C409.242 72.5039 409.504 72.2029 409.766 71.9019Z" fill="#3B3B3B"/>
<path d="M410.248 131.873L409.338 131.766L408.747 130.803C408.271 117.8 408.813 87.0483 408.98 72.8053C409.242 72.5043 409.504 72.2033 409.766 71.9023C411.123 73.1913 411.006 73.8674 410.949 75.9904C410.796 81.7144 411.012 129.997 410.248 131.873Z" fill="#2D2C2E"/>
<path d="M741.565 0.599017C744.489 0.527917 747.414 0.48172 750.339 0.46052C791.096 0.40832 806.849 29.1581 804.334 65.8211C803.808 73.4831 804.339 84.2541 804.344 92.1861C804.505 127.377 804.339 162.569 803.847 197.757L803.156 197.765C800.405 194.376 793.035 174.873 791.233 170.194C774.599 128.258 760.861 85.2301 750.115 41.4141C746.928 28.0941 743.698 14.0811 741.565 0.599017Z" fill="#9740EC"/>
<path d="M48.6804 1.22086C89.8724 0.103756 131.799 1.78106 173.074 1.13476C192.243 0.834658 212.148 0.597956 231.294 1.01376C223.738 4.96636 216.588 6.81336 208.565 9.54836C191.949 15.2124 175.303 19.6164 158.346 24.0834C110.977 36.3104 48.9684 46.3584 0.709378 48.1264C0.657378 38.2424 5.75738 25.7074 12.3634 18.4724C23.0894 6.72736 33.3114 2.28936 48.6804 1.22086Z" fill="#9740EC"/>
<path d="M1.2812 605.37C4.3892 607.708 7.5562 617.566 9.2092 621.577C27.6372 667.298 42.4022 714.411 53.3642 762.472C54.8162 768.563 59.7752 790.578 59.2452 796.007C52.3752 796.227 45.3602 796.429 38.6652 794.704C25.9722 791.433 14.3992 783.621 7.69921 772.236C3.98121 765.811 1.63221 758.687 0.799205 751.311C0.0582052 744.286 0.3912 732.548 0.4062 725.192L0.424205 682.262L0.395206 634.076C0.393206 627.958 -0.1108 610.652 1.2812 605.37Z" fill="#9740EC"/>
<path d="M802.655 752.221C803.55 752.162 803.072 752.084 804.045 752.645C804.084 753.067 804.123 753.488 804.163 753.91C801.748 772.9 784.762 790.017 766.208 793.826C757.788 795.554 746.767 795.041 737.968 795.058L700.359 795.101L620.701 795.089C611.603 795.054 602.384 795.405 593.346 795.17C591.634 795.009 592.138 795.391 591.19 794.51C592.73 792.634 606.098 788.944 609.351 787.939C672.074 768.563 737.17 756.702 802.655 752.221Z" fill="#9740EC"/>
<path d="M507.357 0.744961C510.753 0.692461 514.239 0.798258 517.643 0.861958C519.266 10.557 520.8 20.267 522.243 29.991C502.203 29.819 482.164 30.492 462.18 32.007C450.018 32.997 437.986 34.82 425.752 35.797L411.723 37.163C415.128 22.827 423.011 13.349 435.835 6.43996C448.653 -0.465539 461.397 0.824761 475.412 0.817761L507.357 0.744961Z" fill="#3B3B3B"/>
<path d="M387.309 762.2C388.509 762.018 391.304 761.924 392.635 761.837C387.235 778.896 373.393 790.822 356.21 794.949C347.234 797.104 334.012 796.502 324.559 796.477L286.295 796.255L284.977 795.83C284.081 793.997 281.216 771.722 281.459 769.816C282.84 768.457 296.401 769.23 299.089 769.199C328.599 768.851 358.022 765.529 387.309 762.2Z" fill="#3B3B3B"/>
<path d="M12.9837 268.289C15.7887 268.066 19.0937 268.014 21.9377 267.909C21.6327 274.073 20.0747 283.903 19.2607 290.351C17.6707 302.028 16.5587 313.764 15.9297 325.531C15.0927 340.352 14.4917 355.494 14.8247 370.326C14.8737 372.495 15.3857 376.823 14.7437 378.588C13.1397 378.363 12.9907 377.825 11.5067 376.633C0.29169 363.965 -0.26431 349.531 0.17269 333.545C0.75869 312.092 -0.622312 290.037 0.371688 268.649C4.57769 268.61 8.78269 268.49 12.9837 268.289Z" fill="#3B3B3B"/>
<path d="M791.671 422.944C793.131 423.498 794.083 424.027 795.134 425.173C808.724 439.996 806.549 462.563 806.526 480.87L806.512 530.93C804.321 531.039 801.952 531.265 799.747 531.43C794.988 531.524 789.928 531.884 785.087 532.032C785.4 527.255 786.087 522.371 786.84 517.636C791.865 486.004 792.711 454.842 791.671 422.944Z" fill="#3B3B3B"/>
</svg>
